<?xml version="1.0" standalone="no"?>
<!DOCTYPE svg PUBLIC "-//W3C//DTD SVG 20010904//EN"
 "http://www.w3.org/TR/2001/REC-SVG-20010904/DTD/svg10.dtd">
<svg version="1.0" xmlns="http://www.w3.org/2000/svg"
 width="480.000000pt" height="480.000000pt" viewBox="0 0 480.000000 480.000000"
 preserveAspectRatio="xMidYMid meet">
<metadata>
Created by potrace 1.14, written by Peter Selinger 2001-2017
</metadata>
<g transform="translate(0.000000,480.000000) scale(0.100000,-0.100000)"
fill="#000000" stroke="none">
<path d="M1188 4597 c5 -19 6 -19 19 -2 7 11 13 15 13 9 0 -18 -15 -30 -40
-32 -14 0 -26 -6 -28 -12 -2 -5 -8 -10 -13 -10 -6 0 -20 -10 -32 -21 -16 -16
-18 -20 -5 -16 12 4 15 2 12 -8 -3 -8 -13 -11 -21 -8 -12 5 -14 3 -8 -7 6 -10
4 -12 -8 -7 -10 3 -17 4 -17 1 0 -2 10 -9 23 -14 19 -7 19 -9 3 -9 -15 -1 -16
-4 -6 -16 9 -10 9 -15 1 -15 -6 0 -11 5 -11 11 0 5 -4 7 -10 4 -6 -3 -7 1 -4
9 3 9 1 16 -5 16 -8 0 -11 -561 -10 -1986 0 -1092 3 -1992 6 -2000 3 -8 12
-14 21 -14 14 0 13 2 -2 13 -16 12 -16 13 2 13 14 0 19 -6 17 -18 -2 -10 1
-20 6 -24 5 -3 7 -15 3 -27 -6 -18 -5 -20 8 -10 15 13 38 0 38 -21 0 -5 -7 -1
-16 10 -14 18 -15 18 -4 -4 7 -13 17 -21 25 -18 7 2 19 -3 27 -12 8 -10 8 -13
1 -9 -6 4 -15 3 -18 -3 -4 -6 -3 -10 2 -9 4 1 15 1 23 0 13 -1 13 -3 0 -12
-13 -9 -13 -10 2 -6 19 6 42 -15 30 -28 -4 -5 -1 -5 6 -1 7 4 19 3 27 -4 11
-9 12 -7 8 12 -3 13 -1 19 4 13 12 -15 33 -17 33 -2 0 8 4 7 10 -3 12 -18 14
-40 2 -25 -9 13 -32 17 -32 6 0 -5 9 -11 21 -14 12 -3 19 -10 16 -14 -3 -5 20
-8 51 -7 76 2 79 3 63 13 -17 11 -23 39 -10 47 5 3 9 2 8 -3 -3 -18 2 -33 11
-33 5 0 6 7 3 17 -4 11 -3 14 5 9 7 -4 21 2 33 13 12 11 26 18 30 15 4 -2 17
6 29 18 18 19 20 20 14 4 -5 -14 -3 -17 7 -14 8 3 13 10 12 16 -2 6 4 9 12 6
8 -4 15 -10 15 -16 0 -5 5 -6 10 -3 6 4 8 10 5 15 -3 5 8 5 25 0 19 -5 28 -5
25 1 -4 5 -1 9 5 9 6 0 8 5 4 12 -4 6 -3 8 4 4 6 -3 9 -16 7 -27 -3 -17 -1
-18 9 -10 8 7 12 22 10 34 -2 12 -2 16 2 10 9 -20 27 -15 20 5 -5 15 -5 15 6
1 12 -14 15 -14 32 2 10 10 22 17 26 14 17 -10 60 -13 66 -3 4 6 10 5 15 -3 7
-11 9 -11 9 -1 0 7 4 10 10 7 5 -3 7 0 4 8 -3 8 2 17 10 20 11 4 13 1 10 -11
-5 -13 -4 -14 4 -3 11 16 36 5 26 -11 -5 -7 -2 -8 5 -3 9 5 6 14 -11 33 -13
15 -15 20 -5 13 16 -12 22 -8 18 12 -1 5 3 6 8 2 6 -3 8 -12 5 -19 -3 -8 0
-17 7 -22 8 -4 10 -3 5 4 -4 7 -2 20 4 29 9 14 10 14 7 2 -3 -9 1 -16 9 -16 8
0 14 6 14 14 0 7 5 13 11 13 5 0 8 -4 5 -8 -3 -5 1 -9 9 -9 8 0 11 5 8 10 -3
5 0 7 8 5 8 -3 13 -11 11 -18 -3 -11 0 -11 12 -1 8 7 12 20 9 29 -3 9 -2 14 2
9 5 -4 16 0 26 9 13 12 19 12 25 3 4 -7 3 -10 -4 -5 -6 3 -16 -3 -22 -14 -11
-21 -11 -21 13 -5 19 12 26 13 29 4 3 -9 7 -7 11 5 4 9 3 15 -2 12 -5 -3 -11
0 -14 7 -6 17 58 13 81 -4 15 -13 16 -12 3 4 -15 20 -2 23 18 4 8 -6 11 -7 8
-2 -3 6 0 21 7 34 11 20 14 21 19 7 4 -10 3 -15 -3 -11 -16 10 -11 -1 7 -16
11 -10 14 -10 9 -1 -4 7 -2 12 4 12 7 0 9 7 6 16 -3 8 -2 12 4 9 6 -3 10 -1
10 4 0 6 5 11 11 11 8 0 7 -5 -1 -15 -7 -9 -10 -18 -6 -22 3 -3 6 -1 6 5 0 6
9 14 20 17 11 4 17 11 14 17 -5 7 -2 8 6 3 17 -11 70 -12 70 -2 0 4 -5 7 -12
7 -6 0 -8 3 -5 7 4 3 15 -1 24 -9 10 -8 25 -18 33 -22 8 -4 6 0 -4 8 -11 9
-17 19 -13 22 4 4 14 1 23 -7 16 -13 16 -12 4 11 -13 24 -12 24 6 10 10 -8 23
-19 27 -25 5 -6 7 -3 3 8 -3 11 0 17 10 17 8 0 13 4 10 8 -3 5 1 9 9 9 8 0 12
-3 10 -7 -2 -4 2 -7 9 -7 8 0 12 6 9 14 -3 7 0 13 6 13 6 0 11 -4 11 -10 0 -5
5 -10 11 -10 5 0 8 4 5 9 -3 5 5 11 18 13 19 4 23 1 19 -11 -4 -14 -3 -14 6
-1 8 11 6 18 -7 29 -17 14 -13 13 32 -5 16 -6 17 -5 7 14 -7 12 -9 22 -7 22 3
0 12 -12 20 -27 11 -20 15 -23 16 -10 0 14 7 17 35 14 21 -3 32 0 28 6 -4 6 4
8 20 5 15 -3 24 -1 21 3 -3 5 0 9 6 9 6 0 9 4 5 9 -3 5 -1 12 4 15 5 4 13 1
17 -5 4 -8 3 -9 -4 -5 -8 5 -10 1 -5 -10 5 -15 7 -15 15 0 11 20 29 21 22 2
-3 -8 -1 -17 4 -20 5 -3 9 2 8 11 0 10 5 18 12 19 6 1 15 3 20 4 4 1 11 2 15
1 5 -1 6 3 2 9 -3 6 -12 7 -18 3 -18 -11 -38 -12 -31 -2 3 5 12 9 20 9 10 0
12 5 8 13 -6 9 -5 9 7 0 9 -8 20 -9 29 -3 21 13 33 12 24 -2 -4 -7 -3 -8 4 -4
7 4 12 13 12 21 0 7 7 16 16 19 8 3 13 9 10 14 -2 4 5 9 17 9 23 2 50 31 41
44 -3 5 2 9 10 9 8 0 13 6 11 13 -3 6 5 17 17 22 13 6 24 16 24 23 1 6 3 15 4
20 6 17 5 39 -2 60 -6 16 -5 21 3 16 7 -4 10 -1 7 7 -3 8 -11 13 -17 11 -7 -1
-10 2 -6 8 3 6 11 8 16 5 5 -4 9 -1 9 4 0 6 -5 11 -11 11 -7 0 -8 5 -3 13 14
18 11 47 -6 58 -12 8 -10 9 7 4 19 -5 22 -3 16 12 -5 15 -4 16 8 7 8 -6 24
-10 36 -8 12 2 25 -1 29 -8 4 -6 3 -8 -3 -5 -5 3 -10 0 -10 -7 0 -11 5 -11 25
0 26 13 52 9 52 -10 0 -6 5 -4 11 4 9 12 10 10 5 -9 -4 -18 -2 -21 7 -12 17
17 60 14 54 -4 -4 -8 -1 -17 5 -21 7 -4 8 -3 4 4 -4 7 -2 12 4 12 6 0 9 4 6 8
-3 5 1 9 9 9 8 0 14 -3 13 -6 -2 -19 4 -30 18 -35 14 -6 15 -4 4 9 -12 14 -11
15 13 4 15 -7 24 -16 21 -21 -4 -5 3 -4 14 3 12 7 18 17 15 23 -3 5 -1 6 6 2
9 -6 9 -11 0 -22 -11 -13 -9 -14 13 -4 19 9 31 9 48 0 12 -7 20 -8 17 -3 -3 5
-2 15 4 23 6 10 9 11 9 3 0 -7 4 -13 10 -13 5 0 7 7 4 15 -5 12 -2 14 12 8 16
-6 17 -5 6 9 -10 13 -10 18 -1 24 7 4 9 3 5 -4 -4 -6 1 -10 13 -9 15 1 17 4
10 14 -8 9 -4 11 16 7 22 -4 24 -3 13 10 -7 7 -17 11 -22 8 -5 -3 -6 0 -2 7 6
9 11 9 21 1 10 -8 15 -8 21 1 4 7 3 9 -3 6 -6 -4 -13 0 -16 8 -4 9 -1 12 7 9
9 -4 13 3 10 21 -2 19 2 25 11 21 10 -3 12 2 6 22 -4 15 -6 42 -5 60 2 22 -1
30 -9 25 -8 -5 -8 -2 0 8 10 12 10 18 0 28 -9 9 -9 14 3 21 13 9 13 11 0 21
-13 9 -13 10 2 6 9 -3 19 1 22 9 9 24 7 31 -4 14 -8 -12 -10 -10 -11 10 -1 14
-1 31 0 39 2 7 -2 10 -7 7 -6 -3 -5 5 1 19 7 15 18 23 26 20 12 -5 12 -3 0 11
-12 14 -14 14 -26 -2 -7 -10 -13 -13 -13 -8 0 6 3 14 7 18 13 13 13 107 0 99
-8 -5 -8 -2 0 8 10 12 10 18 0 28 -9 9 -9 14 3 21 13 9 13 11 0 21 -13 9 -13
10 2 6 9 -3 19 1 22 9 9 24 7 31 -4 14 -8 -12 -10 -10 -11 10 -1 14 -1 31 0
39 2 7 -2 10 -7 7 -6 -3 -5 5 1 19 7 15 18 23 26 20 12 -5 12 -3 0 11 -12 14
-14 14 -26 -2 -7 -10 -13 -13 -13 -8 0 6 3 14 7 18 13 13 13 107 0 99 -8 -5
-8 -2 0 8 10 12 10 18 0 28 -9 9 -9 14 3 21 13 9 13 11 0 21 -13 9 -13 10 2 6
9 -3 19 1 22 9 9 24 7 31 -4 14 -8 -12 -10 -10 -11 10 -1 14 -1 31 0 39 2 7
-2 10 -7 7 -6 -3 -5 5 1 19 7 15 18 23 26 20 12 -5 12 -3 0 11 -12 14 -14 14
-26 -2 -7 -10 -13 -13 -13 -8 0 6 3 14 7 18 13 12 12 186 -1 179 -6 -3 -5 0 2
8 15 16 16 33 0 23 -7 -4 -8 -3 -4 5 6 9 11 9 23 -1 15 -12 15 -11 3 9 -8 12
-18 19 -24 16 -5 -3 -6 -1 -2 5 4 6 14 9 24 6 10 -4 13 -2 7 3 -13 10 -13 23
-1 42 9 14 -11 34 -26 25 -4 -3 -8 -1 -8 4 0 6 7 13 16 16 10 4 13 2 8 -6 -4
-7 -3 -8 4 -4 18 11 14 27 -4 24 -10 -2 -18 4 -19 14 -3 15 0 16 17 7 13 -7
18 -7 14 -1 -3 6 -1 12 6 14 7 3 5 7 -6 11 -11 5 -15 3 -10 -5 4 -7 3 -8 -5
-4 -6 4 -9 12 -5 17 3 5 1 16 -6 24 -18 22 8 29 33 8 22 -18 22 -18 4 3 -13
16 -15 23 -6 26 9 3 7 7 -5 11 -9 4 -15 3 -12 -1 3 -5 -1 -9 -9 -9 -11 0 -12
4 -4 14 7 7 7 13 2 13 -5 0 -10 7 -10 15 0 8 3 12 6 10 4 -2 7 30 7 70 1 51
-3 72 -10 68 -6 -4 -5 1 2 10 8 9 11 21 7 27 -3 5 1 10 10 10 9 0 13 5 10 10
-4 6 -10 8 -14 6 -4 -3 -7 12 -7 32 1 26 7 41 21 49 11 7 14 12 7 13 -7 0 -10
5 -6 12 4 7 3 8 -5 4 -6 -4 -8 -12 -5 -18 4 -7 2 -8 -5 -4 -6 4 -9 12 -5 17 3
5 0 17 -8 26 -12 15 -11 15 11 4 13 -7 21 -8 17 -3 -3 6 -1 12 6 14 7 3 5 7
-6 11 -11 5 -15 3 -10 -5 4 -7 3 -8 -5 -4 -6 4 -9 12 -5 17 3 5 1 16 -6 24
-18 22 8 29 33 8 22 -18 22 -18 4 3 -13 16 -15 23 -6 26 9 3 7 7 -5 11 -9 4
-15 3 -12 -1 3 -5 -1 -9 -9 -9 -11 0 -12 4 -4 14 7 7 7 13 2 13 -5 0 -10 7
-10 15 0 8 3 12 6 10 4 -2 7 30 7 70 1 51 -3 72 -10 68 -6 -3 -5 0 1 8 16 16
17 33 1 23 -7 -4 -8 -3 -4 5 6 9 11 9 23 -1 15 -12 15 -11 3 9 -8 12 -18 19
-24 16 -5 -3 -6 -1 -2 5 4 6 14 9 24 6 13 -5 14 -4 4 4 -15 11 -15 21 1 40 8
10 7 16 -3 22 -8 5 -18 6 -22 4 -4 -3 -8 -1 -8 4 0 6 7 13 16 16 10 4 13 2 8
-6 -4 -7 -3 -8 4 -4 18 11 14 27 -4 24 -11 -2 -18 5 -20 22 -1 14 0 19 2 12 3
-6 11 -9 16 -6 7 5 8 2 3 -6 -5 -9 -4 -11 3 -6 18 11 14 22 -10 34 -13 6 -17
11 -10 11 6 1 12 8 12 16 0 8 6 15 12 15 7 0 2 7 -10 16 -29 20 -28 30 6 42
22 9 23 11 7 12 -11 1 -22 2 -25 2 -3 0 -7 8 -7 19 -1 10 2 19 8 19 5 0 8 -5
7 -11 -2 -6 4 -14 12 -16 10 -3 11 -2 4 4 -6 4 -10 16 -8 26 1 9 -2 14 -7 11
-6 -3 -8 5 -5 20 3 15 1 24 -5 21 -8 -5 -13 7 -11 26 1 3 -6 6 -13 6 -11 0
-12 -4 -4 -14 7 -8 8 -13 1 -13 -14 0 -23 28 -12 35 13 8 13 25 -1 25 -5 0 -7
-4 -4 -10 3 -5 1 -10 -4 -10 -6 0 -11 5 -11 10 0 6 -5 10 -11 10 -5 0 -7 -4
-4 -10 3 -5 1 -10 -4 -10 -15 0 -14 13 2 29 10 11 10 13 0 7 -12 -7 -18 5 -14
27 1 5 -3 6 -8 3 -5 -4 -8 -16 -6 -29 4 -19 0 -17 -27 13 -18 19 -29 27 -25
18 3 -10 2 -20 -3 -23 -6 -4 -10 0 -10 8 0 11 -7 13 -22 9 -16 -4 -19 -2 -13
9 7 11 6 12 -7 2 -8 -7 -19 -9 -23 -5 -5 4 -5 1 -1 -5 4 -7 2 -13 -4 -13 -6 0
-8 -5 -4 -12 6 -10 5 -10 -8 -1 -8 7 -18 10 -21 6 -4 -3 -13 -1 -21 6 -11 9
-15 8 -20 -5 -3 -9 -4 -19 -1 -23 6 -10 -39 -6 -57 5 -9 5 -8 1 2 -11 15 -19
15 -19 -15 -1 -16 10 -27 15 -23 11 14 -15 -12 -34 -35 -26 -25 9 -50 4 -41
-10 3 -5 0 -9 -6 -9 -7 0 -9 -7 -6 -16 3 -9 2 -12 -5 -9 -6 4 -8 14 -5 22 3 8
2 12 -3 8 -5 -3 -12 1 -15 7 -3 7 -4 0 -2 -17 1 -16 1 -24 -1 -17 -4 11 -17
16 -36 13 -5 -1 -6 3 -2 9 3 6 10 8 14 6 4 -3 8 1 8 8 0 9 -7 12 -16 8 -14 -5
-14 -4 -1 13 8 10 10 16 4 12 -7 -4 -15 0 -18 9 -4 10 -2 13 6 8 8 -5 9 -2 5
10 -4 10 -3 15 3 11 6 -3 10 -2 10 4 0 5 -5 11 -12 13 -6 2 -12 12 -14 21 -1
9 2 15 7 11 5 -3 7 -10 4 -15 -4 -5 -2 -9 4 -9 17 0 18 25 2 37 -13 10 -14 16
-4 43 10 26 10 30 -2 20 -11 -9 -12 -7 -9 8 3 11 -2 24 -13 33 -17 13 -17 13
-3 -6 14 -19 14 -19 -3 -6 -11 9 -14 18 -8 25 17 20 16 24 -8 50 -18 19 -28
23 -37 15 -15 -12 -34 -4 -33 14 0 9 2 9 6 0 2 -7 9 -13 14 -13 4 0 6 7 2 16
-4 10 -14 14 -29 11 -20 -3 -22 -1 -13 14 11 21 10 21 -41 23 -30 1 -35 5 -34
24 1 30 -3 28 -20 -10 l-14 -33 3 31 c3 27 0 31 -15 27 -12 -3 -17 -11 -13
-21 4 -13 2 -13 -9 2 -8 10 -20 16 -26 12 -6 -4 -17 2 -24 14 -7 11 -16 20
-21 20 -4 0 -6 -4 -2 -9 3 -5 0 -13 -6 -17 -7 -4 -9 -3 -6 3 3 5 -7 20 -23 31
-33 25 -40 27 -40 11 0 -5 4 -8 8 -5 4 2 14 -5 22 -17 12 -20 12 -21 -3 -8 -9
7 -23 11 -31 8 -11 -4 -13 1 -10 21 5 26 5 26 -10 7 -15 -20 -15 -20 -16 1 0
12 -7 25 -16 28 -8 3 -13 2 -10 -3 3 -5 -8 -11 -25 -13 -16 -3 -32 -1 -35 4
-3 5 -10 5 -16 2 -7 -5 -9 -1 -5 9 4 12 2 14 -10 10 -13 -5 -15 -2 -9 13 6 15
5 16 -5 7 -10 -10 -9 -15 1 -28 8 -10 9 -15 1 -15 -6 0 -11 4 -11 10 0 5 -3 9
-7 9 -21 -3 -33 2 -33 15 0 8 -5 18 -12 22 -7 5 -8 3 -4 -5 6 -8 2 -11 -10 -9
-11 2 -18 -2 -17 -8 1 -6 -5 -11 -12 -11 -11 0 -12 4 -4 13 7 9 7 18 -1 31
-10 16 -11 16 -6 1 3 -10 1 -18 -4 -18 -6 0 -10 6 -10 13 -1 7 -6 5 -14 -6
-13 -17 -14 -17 -21 0 -5 10 -7 23 -6 28 2 6 -1 7 -5 3 -4 -4 -14 -2 -22 5
-13 9 -14 9 -8 0 7 -13 -4 -17 -31 -14 -7 1 -13 -4 -13 -11 0 -8 -5 -6 -11 5
-5 9 -8 21 -4 26 3 5 0 13 -6 17 -8 4 -9 3 -5 -4 4 -7 1 -12 -8 -12 -10 0 -13
6 -9 18 5 14 3 14 -11 -3 -10 -11 -15 -14 -11 -7 3 6 1 12 -4 12 -6 0 -11 -4
-11 -8 0 -5 -7 -9 -15 -9 -13 0 -13 2 0 17 13 14 13 17 0 17 -8 0 -12 -4 -9
-9 9 -14 -26 -9 -41 6 -11 10 -11 16 -2 27 10 11 9 11 -6 0 -11 -9 -14 -17 -8
-25 6 -8 6 -17 -1 -26 -8 -12 -9 -12 -4 2 6 20 -9 34 -19 18 -5 -8 -11 -8 -20
0 -8 7 -19 9 -24 5 -7 -3 -8 0 -5 10 5 12 9 13 20 4 11 -9 14 -8 14 5 0 10 -4
14 -10 11 -5 -3 -10 0 -10 7 0 9 -3 9 -10 -2 -5 -8 -10 -10 -10 -5 0 6 -5 3
-10 -5 -6 -10 -10 -11 -10 -2 0 6 -7 12 -16 12 -8 0 -13 -4 -10 -9 4 -5 -2 -8
-11 -7 -9 2 -19 9 -21 17 -3 12 -2 12 6 0 5 -7 12 -9 15 -4 3 5 -3 15 -15 22
-14 9 -18 9 -13 1 5 -9 1 -10 -15 -5 -17 5 -21 4 -15 -6 5 -8 5 -11 0 -7 -4 4
-15 2 -24 -5 -14 -10 -14 -10 -4 4 7 9 9 20 5 24 -4 5 -1 5 6 1 18 -10 15 -1
-5 15 -11 10 -14 10 -9 2 4 -7 2 -13 -3 -13 -6 0 -11 5 -11 11 0 5 -5 7 -10 4
-8 -5 -7 -11 0 -21 7 -7 -6 -4 -28 9 -22 12 -38 25 -36 29 2 4 -7 5 -21 2 -20
-3 -23 -1 -18 13 6 15 5 16 -9 3 -9 -8 -14 -18 -12 -22 2 -3 -4 -5 -13 -4 -9
2 -19 8 -21 15 -3 9 -8 9 -20 -1 -10 -8 -13 -9 -9 -1 10 17 -13 28 -25 12 -7
-10 -8 -9 -4 6 7 27 -8 54 -17 30 -5 -10 -3 -14 5 -9 6 4 8 3 5 -4 -7 -11 -20
-10 -49 3 -10 4 -15 11 -12 16 3 5 -3 6 -13 2 -16 -6 -17 -5 -3 13 13 17 13
18 0 7 -8 -6 -32 -11 -52 -10 -44 1 -42 8 3 13 73 9 30 12 -154 12 -191 0
-194 -1 -189 -21z m392 -32 c0 -2 -6 -5 -13 -8 -8 -3 -14 1 -14 8 0 7 6 11 14
8 7 -3 13 -6 13 -8z m779 -218 c0 -9 -2 -8 -6 1 -2 6 -10 9 -15 6 -7 -4 -8 -2
-4 5 9 13 26 5 25 -12z m295 -72 c-4 -8 -11 -12 -16 -9 -6 4 -5 10 3 15 19 12
19 11 13 -6z m443 -198 c0 -8 -6 -14 -13 -14 -6 0 -11 7 -9 16 1 9 -3 23 -9
31 -7 10 -3 9 10 -3 11 -9 21 -23 21 -30z m408 -225 c-3 -3 -11 0 -18 7 -9 10
-8 11 6 5 10 -3 15 -9 12 -12z m189 -113 c-3 -5 -10 -7 -15 -3 -5 3 -7 10 -3
15 3 5 10 7 15 3 5 -3 7 -10 3 -15z m21 -289 c-3 -5 -12 -10 -18 -10 -7 0 -6
4 3 10 19 12 23 12 15 0z m-28 -515 c0 -8 -4 -12 -9 -9 -5 3 -6 10 -3 15 9 13
12 11 12 -6z m28 -445 c-3 -5 -12 -10 -18 -10 -7 0 -6 4 3 10 19 12 23 12 15
0z m-21 -1048 c3 -5 -1 -9 -9 -9 -8 0 -12 4 -9 9 3 4 7 8 9 8 2 0 6 -4 9 -8z
m-505 -275 c8 -10 7 -14 -2 -14 -8 0 -14 6 -14 14 0 7 1 13 2 13 2 0 8 -6 14
-13z m381 -82 c0 -8 -4 -15 -10 -15 -5 0 -7 7 -4 15 4 8 8 15 10 15 2 0 4 -7
4 -15z m-435 -134 c3 -5 2 -12 -3 -15 -5 -3 -9 1 -9 9 0 17 3 19 12 6z m-5
-35 c0 -3 -4 -8 -10 -11 -5 -3 -10 -1 -10 4 0 6 5 11 10 11 6 0 10 -2 10 -4z
m-260 -176 c0 -5 -5 -10 -11 -10 -5 0 -7 5 -4 10 3 6 8 10 11 10 2 0 4 -4 4
-10z m-100 -39 c0 -14 -29 -21 -36 -9 -4 7 -3 8 4 4 7 -4 12 -2 12 3 0 6 5 11
10 11 6 0 10 -4 10 -9z m-260 -61 c0 -5 -5 -10 -11 -10 -5 0 -7 5 -4 10 3 6 8
10 11 10 2 0 4 -4 4 -10z m-668 -212 c-7 -7 -12 -8 -12 -2 0 14 12 26 19 19 2
-3 -1 -11 -7 -17z m-634 -70 c-2 -7 3 -12 10 -10 8 1 11 -2 7 -8 -3 -5 -1 -10
6 -10 7 0 9 -3 6 -7 -8 -7 -47 25 -47 39 0 4 5 8 10 8 6 0 9 -6 8 -12z m189
-66 c9 -15 8 -19 -3 -19 -8 0 -14 7 -14 14 0 8 -5 11 -10 8 -6 -4 -8 -10 -6
-14 6 -10 -40 -8 -50 2 -4 4 0 8 9 8 30 2 35 4 43 12 11 11 18 9 31 -11z"/>
<path d="M1615 4581 c-3 -5 -1 -12 5 -16 5 -3 10 1 10 9 0 18 -6 21 -15 7z"/>
<path d="M1691 4554 c6 -7 15 -11 20 -9 4 3 12 -3 18 -12 6 -10 11 -16 11 -13
7 32 7 41 -2 47 -7 3 -8 1 -4 -5 8 -13 -6 -17 -18 -5 -3 4 -13 8 -22 9 -12 2
-13 -1 -3 -12z"/>
<path d="M1830 4521 c0 -9 30 -24 36 -18 2 1 -6 8 -16 15 -11 7 -20 8 -20 3z"/>
<path d="M1936 4498 c3 -5 10 -6 15 -3 13 9 11 12 -6 12 -8 0 -12 -4 -9 -9z"/>
<path d="M2096 4433 c-6 -14 -5 -15 5 -6 7 7 10 15 7 18 -3 3 -9 -2 -12 -12z"/>
<path d="M2287 4391 c-4 -17 -3 -21 5 -13 5 5 8 16 6 23 -3 8 -7 3 -11 -10z"/>
<path d="M2511 4324 c0 -11 3 -14 6 -6 3 7 2 16 -1 19 -3 4 -6 -2 -5 -13z"/>
<path d="M2590 4299 c0 -5 5 -7 10 -4 6 3 10 8 10 11 0 2 -4 4 -10 4 -5 0 -10
-5 -10 -11z"/>
<path d="M2810 4243 c0 -19 17 -24 30 -8 9 10 9 15 1 15 -6 0 -11 -6 -11 -12
0 -9 -4 -8 -10 2 -6 9 -10 10 -10 3z"/>
<path d="M3140 3959 c0 -5 5 -7 10 -4 6 3 10 8 10 11 0 2 -4 4 -10 4 -5 0 -10
-5 -10 -11z"/>
<path d="M3570 3871 c0 -6 4 -13 10 -16 6 -3 7 1 4 9 -7 18 -14 21 -14 7z"/>
<path d="M3353 3849 c-2 -23 3 -25 10 -4 4 8 3 16 -1 19 -4 3 -9 -4 -9 -15z"/>
<path d="M3250 3826 c0 -2 7 -7 16 -10 8 -3 12 -2 9 4 -6 10 -25 14 -25 6z"/>
<path d="M3705 3641 c-6 -11 13 -26 22 -17 4 3 0 6 -8 6 -11 0 -11 2 1 10 9 6
10 10 3 10 -6 0 -14 -4 -18 -9z"/>
<path d="M3716 3573 c-6 -14 -5 -15 5 -6 7 7 10 15 7 18 -3 3 -9 -2 -12 -12z"/>
<path d="M3718 3343 c7 -3 16 -2 19 1 4 3 -2 6 -13 5 -11 0 -14 -3 -6 -6z"/>
<path d="M3715 3321 c-3 -5 -2 -12 3 -15 5 -3 9 1 9 9 0 17 -3 19 -12 6z"/>
<path d="M3716 3282 c-3 -5 1 -9 9 -9 8 0 12 4 9 9 -3 4 -7 8 -9 8 -2 0 -6 -4
-9 -8z"/>
<path d="M3713 3246 c0 -7 6 -13 14 -13 7 0 13 4 13 8 0 4 -6 9 -13 12 -8 3
-14 0 -14 -7z"/>
<path d="M3714 3193 c-1 -13 3 -23 9 -23 6 0 7 3 4 6 -3 4 -2 14 3 24 6 11 5
17 -3 17 -7 0 -13 -11 -13 -24z"/>
<path d="M3700 3116 c0 -2 8 -10 18 -17 15 -13 16 -12 3 4 -13 16 -21 21 -21
13z"/>
<path d="M3719 2968 c-6 -22 -5 -38 3 -38 6 0 8 6 5 14 -3 8 -1 17 6 20 9 3 9
5 0 5 -7 1 -13 0 -14 -1z"/>
<path d="M3718 2863 c7 -3 16 -2 19 1 4 3 -2 6 -13 5 -11 0 -14 -3 -6 -6z"/>
<path d="M3715 2841 c-3 -5 -2 -12 3 -15 5 -3 9 1 9 9 0 17 -3 19 -12 6z"/>
<path d="M3716 2802 c-3 -5 1 -9 9 -9 8 0 12 4 9 9 -3 4 -7 8 -9 8 -2 0 -6 -4
-9 -8z"/>
<path d="M3713 2766 c0 -7 6 -13 14 -13 7 0 13 4 13 8 0 4 -6 9 -13 12 -8 3
-14 0 -14 -7z"/>
<path d="M3714 2713 c-1 -13 3 -23 9 -23 6 0 7 3 4 6 -3 4 -2 14 3 24 6 11 5
17 -3 17 -7 0 -13 -11 -13 -24z"/>
<path d="M3700 2636 c0 -2 8 -10 18 -17 15 -13 16 -12 3 4 -13 16 -21 21 -21
13z"/>
<path d="M3718 2383 c7 -3 16 -2 19 1 4 3 -2 6 -13 5 -11 0 -14 -3 -6 -6z"/>
<path d="M3715 2361 c-3 -5 -2 -12 3 -15 5 -3 9 1 9 9 0 17 -3 19 -12 6z"/>
<path d="M3716 2322 c-3 -5 1 -9 9 -9 8 0 12 4 9 9 -3 4 -7 8 -9 8 -2 0 -6 -4
-9 -8z"/>
<path d="M3713 2286 c0 -7 6 -13 14 -13 7 0 13 4 13 8 0 4 -6 9 -13 12 -8 3
-14 0 -14 -7z"/>
<path d="M3713 2243 c0 -7 4 -13 8 -13 4 0 9 6 12 13 3 8 0 14 -7 14 -7 0 -13
-6 -13 -14z"/>
<path d="M3710 2216 c0 -2 7 -7 16 -10 8 -3 12 -2 9 4 -6 10 -25 14 -25 6z"/>
<path d="M3718 2143 c7 -3 16 -2 19 1 4 3 -2 6 -13 5 -11 0 -14 -3 -6 -6z"/>
<path d="M3715 2121 c-3 -5 -2 -12 3 -15 5 -3 9 1 9 9 0 17 -3 19 -12 6z"/>
<path d="M3720 2037 c-7 -12 -13 -23 -12 -24 4 -6 17 -2 17 5 0 4 4 13 9 20 4
7 6 15 4 17 -2 2 -10 -6 -18 -18z"/>
<path d="M3718 1983 c7 -3 16 -2 19 1 4 3 -2 6 -13 5 -11 0 -14 -3 -6 -6z"/>
<path d="M3715 1961 c-3 -5 -2 -12 3 -15 5 -3 9 1 9 9 0 17 -3 19 -12 6z"/>
<path d="M3715 1920 c-3 -5 -1 -10 4 -10 6 0 11 5 11 10 0 6 -2 10 -4 10 -3 0
-8 -4 -11 -10z"/>
<path d="M3710 1896 c0 -2 7 -7 16 -10 8 -3 12 -2 9 4 -6 10 -25 14 -25 6z"/>
<path d="M3718 1823 c7 -3 16 -2 19 1 4 3 -2 6 -13 5 -11 0 -14 -3 -6 -6z"/>
<path d="M3715 1801 c-3 -5 -2 -12 3 -15 5 -3 9 1 9 9 0 17 -3 19 -12 6z"/>
<path d="M3720 1717 c-7 -12 -13 -23 -12 -24 4 -6 17 -2 17 5 0 4 4 13 9 20 4
7 6 15 4 17 -2 2 -10 -6 -18 -18z"/>
<path d="M3718 1663 c7 -3 16 -2 19 1 4 3 -2 6 -13 5 -11 0 -14 -3 -6 -6z"/>
<path d="M3715 1641 c-3 -5 -2 -12 3 -15 5 -3 9 1 9 9 0 17 -3 19 -12 6z"/>
<path d="M3715 1600 c-3 -5 -1 -10 4 -10 6 0 11 5 11 10 0 6 -2 10 -4 10 -3 0
-8 -4 -11 -10z"/>
<path d="M3710 1576 c0 -2 7 -7 16 -10 8 -3 12 -2 9 4 -6 10 -25 14 -25 6z"/>
<path d="M3718 1503 c7 -3 16 -2 19 1 4 3 -2 6 -13 5 -11 0 -14 -3 -6 -6z"/>
<path d="M3715 1481 c-3 -5 -2 -12 3 -15 5 -3 9 1 9 9 0 17 -3 19 -12 6z"/>
<path d="M3720 1397 c-7 -12 -13 -23 -12 -24 4 -6 17 -2 17 5 0 4 4 13 9 20 4
7 6 15 4 17 -2 2 -10 -6 -18 -18z"/>
<path d="M3718 1343 c7 -3 16 -2 19 1 4 3 -2 6 -13 5 -11 0 -14 -3 -6 -6z"/>
<path d="M3715 1321 c-3 -5 -2 -12 3 -15 5 -3 9 1 9 9 0 17 -3 19 -12 6z"/>
<path d="M3716 1282 c-2 -4 -1 -14 4 -22 7 -11 9 -9 7 8 -1 24 -3 26 -11 14z"/>
<path d="M3706 1198 c3 -5 10 -6 15 -3 13 9 11 12 -6 12 -8 0 -12 -4 -9 -9z"/>
<path d="M3025 789 c-4 -6 -4 -13 -1 -16 3 -4 6 -1 6 6 0 7 5 9 12 5 7 -4 8
-3 4 4 -9 15 -13 15 -21 1z"/>
<path d="M2344 558 c-19 -23 -19 -23 2 -5 11 9 24 14 29 10 4 -5 5 -2 1 5 -9
16 -10 16 -32 -10z"/>
<path d="M2175 520 c-3 -5 -1 -10 4 -10 6 0 11 5 11 10 0 6 -2 10 -4 10 -3 0
-8 -4 -11 -10z"/>
<path d="M1068 453 c6 -2 9 -10 6 -15 -4 -7 -2 -8 5 -4 13 9 5 26 -12 25 -9 0
-8 -2 1 -6z"/>
<path d="M1760 405 c-7 -9 -11 -17 -9 -20 3 -2 10 5 17 15 14 24 10 26 -8 5z"/>
<path d="M1565 349 c-4 -6 -5 -12 -2 -15 2 -3 7 2 10 11 7 17 1 20 -8 4z"/>
<path d="M1520 340 c-8 -5 -17 -7 -21 -4 -4 2 -13 -4 -20 -13 -10 -12 -10 -14
-1 -9 7 4 12 2 12 -6 0 -8 5 -6 11 5 5 9 15 17 20 17 6 0 8 -4 5 -8 -3 -5 1
-9 8 -9 8 0 13 6 12 13 -3 20 -10 24 -26 14z"/>
</g>
</svg>
